<svg id="Capa_1" enable-background="new 0 0 512.016 512.016" height="512" viewBox="0 0 512.016 512.016" width="512" xmlns="http://www.w3.org/2000/svg"><g><path d="m402.017 368.881h-292.017c-60.654 0-110-49.346-110-110s49.346-110 110-110h292.017c60.653 0 109.999 49.346 109.999 110s-49.346 110-109.999 110z" fill="#ff647d"/><path d="m402.017 148.881h-146.009v220h146.009c60.653 0 109.999-49.346 109.999-110s-49.346-110-109.999-110z" fill="#ff3b71"/><path clip-rule="evenodd" d="m402.017 178.881h-292.017c-44.112 0-80 35.888-80 80s35.888 80 80 80h292.017c44.111 0 79.999-35.888 79.999-80s-35.888-80-79.999-80z" fill="#ffde46" fill-rule="evenodd"/><path clip-rule="evenodd" d="m402.017 178.881h-146.009v160h146.009c44.111 0 79.999-35.888 79.999-80s-35.888-80-79.999-80z" fill="#ffcd00" fill-rule="evenodd"/><path d="m256.008 208.993c-8.284 0-15 6.716-15 15v69.775c0 8.284 6.716 15 15 15s15-6.716 15-15v-69.775c0-8.284-6.716-15-15-15z" fill="#ff647d"/><path d="m402.996 208.881c-8.284 0-15 6.716-15 15v31.49c0 8.284 6.716 15 15 15s15-6.716 15-15v-31.49c0-8.284-6.716-15-15-15z" fill="#ff3b71"/><path d="m374.22 222.876c-.094-8.284-6.884-14.967-15.169-14.829-8.283.094-14.923 6.885-14.829 15.169l.34 30.022-31.884-39.481c-3.995-4.945-10.673-6.839-16.668-4.719-5.994 2.118-10.002 7.785-10.002 14.143v71.865c0 8.284 6.716 15 15 15s15-6.716 15-15v-29.416l30.163 37.351c4.493 5.549 11.589 7.648 18.075 5.35 6.537-2.315 10.762-8.482 10.762-15.711 0-.057 0-.113-.001-.17z" fill="#ff3b71"/><path d="m215.883 209.774c-7.998-2.172-16.236 2.551-18.406 10.545l-8.759 32.263-14.403-34.271c-3.21-7.638-12.005-11.228-19.64-8.017-4.088 1.718-7 5.041-8.346 8.924l-14.09 33.371-8.736-32.375c-2.159-7.998-10.395-12.731-18.39-10.574-7.998 2.158-12.732 10.392-10.574 18.391 0 0 18.507 68.587 18.511 68.602 2.744 10.168 14.988 14.857 24.167 10.343 3.584-1.763 6.618-4.736 8.185-8.437l15.079-35.713s15.007 35.708 15.007 35.71c2.21 5.26 7.115 8.991 12.703 9.965 5.254.915 10.84-.528 14.825-4.115 2.268-2.042 4.02-4.778 4.828-7.751l18.585-68.453c2.17-7.997-2.551-16.238-10.546-18.408z" fill="#ff647d"/><circle cx="402.993" cy="293.879" fill="#ff3b71" r="15"/><path d="m94.837 61.748c2.305.306 4.602.455 6.878.455 16.508 0 31.861-7.867 40.365-21.112 4.476-6.971 2.453-16.25-4.519-20.726s-16.251-2.452-20.727 4.519c-2.803 4.365-9.477 8.259-18.055 7.124-8.212-1.086-15.752 4.687-16.841 12.899-1.088 8.212 4.687 15.752 12.899 16.841z" fill="#4793ff"/><path d="m405.32 120.037c.104 0 .212-.001.316-.001 8.284-.051 14.959-6.807 14.909-15.091-.051-8.254-6.756-14.909-14.998-14.909-.07.001-.143.001-.213.001-7.849 0-19.171-4.652-25.438-17.793-3.565-7.478-12.517-10.65-19.996-7.082-7.478 3.566-10.648 12.519-7.082 19.996 10.12 21.219 30.7 34.879 52.502 34.879z" fill="#ff8856"/><path d="m30.345 432.114c-7.768 2.879-11.731 11.51-8.853 19.278 2.879 7.768 11.511 11.732 19.277 8.853 5.687-2.105 17.287-1.125 25.947 10.212 2.953 3.865 7.416 5.896 11.931 5.896 3.175 0 6.376-1.005 9.095-3.081 6.583-5.029 7.843-14.442 2.814-21.025-17.362-22.729-43.381-26.366-60.211-20.133z" fill="#25f5eb"/><path d="m360.358 383.309c-8.223-.952-15.672 4.949-16.622 13.179-.688 5.952-6.691 15.684-20.411 18.099-8.158 1.436-13.608 9.214-12.172 17.373 1.281 7.279 7.61 12.402 14.755 12.402.863 0 1.738-.075 2.618-.23 27.985-4.926 42.95-26.365 45.011-44.2.951-8.231-4.95-15.673-13.179-16.623z" fill="#525cdd"/><circle cx="481.261" cy="62.203" fill="#ff3b71" r="15"/><circle cx="223.637" cy="104.433" fill="#ff647d" r="15"/><circle cx="256.008" cy="457.554" fill="#25f5eb" r="15"/><circle cx="468.944" cy="479.03" fill="#ff3b71" r="15"/><circle cx="29.776" cy="121.016" fill="#bee75e" r="15"/><path d="m256.008 208.993v99.775c8.284 0 15-6.716 15-15v-69.775c0-8.284-6.716-15-15-15z" fill="#ff3b71"/><path d="m256.008 442.554v30c8.284 0 15-6.716 15-15s-6.715-15-15-15z" fill="#01d2e3"/></g></svg>